<svg height="48" viewBox="0 0 28 48" width="28" xmlns="http://www.w3.org/2000/svg"><g fill-rule="evenodd" transform="translate(4 4)"><path d="m19.718 19.309-17.997-19.002c-.185-.187-.438-.307-.721-.307-.553 0-1 .447-1 1 0 .27.109.512.282.691l17.341 18.309-17.344 18.306c-.17.182-.279.424-.279.694 0 .552.447 1 1 1 .283 0 .536-.12.718-.309l18.003-18.998c.17-.181.279-.423.279-.693s-.109-.512-.282-.691z" stroke="#222" stroke-width="7"/><path d="m19.718 19.309-17.997-19.002c-.185-.187-.438-.307-.721-.307-.553 0-1 .447-1 1 0 .27.109.512.282.691l17.341 18.309-17.344 18.306c-.17.182-.279.424-.279.694 0 .552.447 1 1 1 .283 0 .536-.12.718-.309l18.003-18.998c.17-.181.279-.423.279-.693s-.109-.512-.282-.691z" stroke="#000" stroke-width="2"/></g></svg>