<svg height="12" viewBox="0 0 12 12" width="12" xmlns="http://www.w3.org/2000/svg"><g fill="none" fill-rule="evenodd"><path d="m11.531.018c-.097-.009-2.785-.284-4.368 1.673l-.311-.149c-.038-.017-.07-.025-.105-.041l-.072-.035-.507-.242c-.91-.439-1.343-.031-1.634.582-.007.015-.159.289-.226.412-1.608.196-3.085 1.175-3.832 2.751-1.163 2.452-.123 5.387 2.323 6.553 2.446 1.167 5.371.124 6.534-2.329.717-1.512.582-3.196-.19-4.546.092-.175.249-.478.255-.491.28-.592.51-1.179-.523-1.603l-.452-.222c-.109-.078-.235-.155-.407-.225l-.062-.031c.627-.698 1.71-1.161 3.47-.989.285.031.544-.188.574-.483.027-.293-.182-.556-.467-.585" fill="#ccc"/><path d="m4.6218 3.6137c-.022-.04-.066-.062-.11-.049-.032.007-.766.184-1.503.797-.679.566-1.484 1.625-1.451 3.455.001.05.038.093.087.099.008.001.792.094 1.37.222.006.002.014.002.021.002.028 0 .055-.01.073-.03.025-.025.034-.062.025-.097-.006-.021-.575-2.238 1.47-4.279.034-.032.04-.08.018-.12" fill="#fff"/></g></svg>