<svg height="14" viewBox="0 0 14 14" width="14" xmlns="http://www.w3.org/2000/svg"><path d="m8.41243512 7 5.29466528-5.29457088c.3905328-.39052579.3905328-1.02275808 0-1.41328387-.3895339-.389527-1.0217775-.389527-1.4123102 0l-5.29466535 5.29556967-5.29566412-5.29556967c-.38953395-.389527-1.02177751-.389527-1.41231027 0-.38953395.39052579-.38953395 1.02275808 0 1.41328387l5.29566412 5.29457088-5.29566412 5.2945709c-.38953395.3905258-.38953395 1.0227581 0 1.4132838.39053276.3895271 1.02277632.3895271 1.41231027 0l5.29566412-5.29556962 5.29466535 5.29556962c.3905327.3895271 1.0227763.3895271 1.4123102 0 .3905328-.3905257.3905328-1.022758 0-1.4132838z" fill="#666" fill-rule="evenodd"/></svg>