<svg height="12" viewBox="0 0 16 12" width="16" xmlns="http://www.w3.org/2000/svg" xmlns:xlink="http://www.w3.org/1999/xlink"><defs><path id="a" d="m3.33333333 4.16666667h13.33333337c.4602373 0 .8333333.37309604.8333333.83333333s-.373096.83333333-.8333333.83333333h-13.33333337c-.46023729 0-.83333333-.37309604-.83333333-.83333333s.37309604-.83333333.83333333-.83333333zm0 5h13.33333337c.4602373 0 .8333333.37309604.8333333.83333333 0 .4602373-.373096.8333333-.8333333.8333333h-13.33333337c-.46023729 0-.83333333-.373096-.83333333-.8333333 0-.46023729.37309604-.83333333.83333333-.83333333zm0 5.00000003h13.33333337c.4602373 0 .8333333.373096.8333333.8333333s-.373096.8333333-.8333333.8333333h-13.33333337c-.46023729 0-.83333333-.373096-.83333333-.8333333s.37309604-.8333333.83333333-.8333333z"/><mask id="b" fill="#fff"><use fill="#fff" fill-rule="evenodd" xlink:href="#a"/></mask></defs><g fill="none" fill-rule="evenodd" transform="translate(-2.200587 -3.912916)"><use fill="#2e2e2e" fill-rule="evenodd" xlink:href="#a"/><g fill="#292929" fill-rule="evenodd" mask="url(#b)"><path d="m0 0h20v20h-20z"/></g><path d="m0 0h20v20h-20z" mask="url(#b)"/></g></svg>