<svg height="400" viewBox="0 0 400 400" width="400" xmlns="http://www.w3.org/2000/svg" xmlns:xlink="http://www.w3.org/1999/xlink"><defs><circle id="a" cx="200" cy="200" r="200"/><mask id="b" fill="#fff"><use fill="#fff" fill-rule="evenodd" xlink:href="#a"/></mask></defs><g fill="none" fill-rule="evenodd"><use fill="#888" xlink:href="#a"/><path d="m243.389061 264.938781c-3.547143-14.571937 9.236214-30.43825 9.188464-30.43825.961821-.960562 22.456143-23.0535 22.456143-72.941437 0-38.01375-7.769607-88.5625002-75.035714-88.5625002-67.252465 0-75.035715 50.5487502-75.035715 88.5625002 0 49.942437 21.548893 72.035375 22.046857 72.491812.129608.1635 13.13125 16.254625 9.618215 30.833375-1.937286 8.052375-8.786 14.68775-20.375607 19.715375-78.5010004 24.163938-127.25375043 52.708313-127.25375043 74.521938v27.25c0 8.849437 7.03289283 13.625 13.64285713 13.625h354.7142853c6.616786 0 13.642858-4.775563 13.642858-13.625v-27.25c0-21.813625-48.745929-50.358-127.240108-74.521938-11.569142-5.014-18.417857-11.628937-20.368785-19.660875z" fill="#f2f2f2" mask="url(#b)"/></g></svg>