<svg height="12" viewBox="0 0 12 12" width="12" xmlns="http://www.w3.org/2000/svg"><g fill="none" fill-rule="evenodd"><path d="m11.5426733 4.61218088c.0354733.00167855.0664394.02514285.0776897.05896855.0115677.03470335.0007777.07252762-.0270083.09561315l-2.97984537 2.47307248-.18418047.15285749.06109062.23142124 1.02719962 3.89120001c.00940106.0355952-.00441779.073227-.03425649.0939681-.01507.0105029-.03185866.0157181-.04936388.0157181-.01781024 0-.03498424-.0053902-.04976289-.0158352l-3.16785662-2.23804087-.21637922-.15286852-.21637922.15286852-3.16779883 2.23799997c-.02948121.0208453-.06927537.0209741-.09900338.000284-.03001988-.0208671-.04383873-.0584989-.03444935-.0940499l1.0272113-3.89124421.06109062-.23142124-.18418047-.15285749-2.97999889-2.4732c-.02763246-.02295801-.03842245-.06078228-.02693332-.09524969.01132887-.03406164.04229492-.05752594.07776825-.05920449l3.78472875-.18040618.25073261-.01195164.08451723-.23636099 1.3411995-3.7508c.0123817-.03469121.04496925-.05766207.0814952-.05766207s.0691135.02297086.08142053.05745307l1.34148014 3.75102569.08452386.23634427.25071907.01195163 3.7843986.1804z" stroke="#acacac" stroke-width=".75"/><path d="m6 9.67747869-3.16779883 2.23821821c-.15839994.1118009-.37039986.1124009-.5295998.0018-.15939994-.1110009-.23239992-.3100025-.18279994-.497604l1.02719962-3.89143169-2.97999889-2.47322011c-.14659995-.12160098-.20359993-.32120261-.14319995-.50240408.06019998-.18080147.22559992-.30620249.41579985-.31520256l3.7845986-.18040147 1.3411995-3.7508305c.06559998-.18380149.23959991-.30640249.43459984-.30640249z" fill="#336799"/></g></svg>