<svg height="12" viewBox="0 0 12 12" width="12" xmlns="http://www.w3.org/2000/svg"><path d="m11.5603979 4.2376-3.78439856-.1804-1.3413995-3.7508c-.06559998-.1838-.23959991-.3064-.43459984-.3064s-.36899986.1226-.43459984.3064l-1.3411995 3.7508-3.7845986.1804c-.19019993.009-.35559987.1342-.41579985.3152-.06039998.1812-.0034.3806.14319995.5024l2.97999889 2.4732-1.02719962 3.8912c-.04959998.1878.0234.3868.18279994.4976.15919994.1108.37119986.1102.5295998-.0018l3.16779883-2.238 3.16779883 2.238c.07979997.0564.17299993.0846.2661999.0846.09219997 0 .18419993-.0276.2633999-.0828.15939994-.1108.23239992-.3098.18279994-.4976l-1.02719962-3.8912 2.97999885-2.4732c.1466-.1218.2036-.3212.1432-.5024-.0602-.181-.2255999-.3062-.4157999-.3152z" fill="#336799" fill-rule="evenodd"/></svg>