<svg height="12" viewBox="0 0 12 12" width="12" xmlns="http://www.w3.org/2000/svg" xmlns:xlink="http://www.w3.org/1999/xlink"><defs><path id="a" d="m59.5603979 4.2376-3.7843986-.1804-1.3413995-3.7508c-.0655999-.1838-.2395999-.3064-.4345998-.3064s-.3689999.1226-.4345998.3064l-1.3411995 3.7508-3.7845986.1804c-.1902.009-.3555999.1342-.4157999.3152-.0604.1812-.0034.3806.1432.5024l2.9799989 2.4732-1.0271997 3.8912c-.0495999.1878.0234.3868.1828.4976.1591999.1108.3711998.1102.5295998-.0018l3.1677988-2.238 3.1677988 2.238c.0798.0564.173.0846.2661999.0846.0922 0 .1842-.0276.2633999-.0828.1594-.1108.2323999-.3098.1828-.4976l-1.0271997-3.8912 2.9799989-2.4732c.1466-.1218.2036-.3212.1432-.5024-.0602-.181-.2255999-.3062-.4157999-.3152z"/><mask id="b" fill="#fff" height="12" width="12" x="0" y="0"><use xlink:href="#a"/></mask></defs><use fill="none" mask="url(#b)" stroke="#999" stroke-width="1.5" transform="translate(-48)" xlink:href="#a"/></svg>